<svg
  xmlns="http://www.w3.org/2000/svg"
  viewBox="0 0 170 170"
  fill="none"
>
  <path
    d="M51.668 116.923H52.3858C52.3858 115.827 52.4235 115.185 52.4235 114.996C52.4991 114.543 52.688 114.165 52.9902 113.901C53.3302 113.636 53.7835 113.485 54.388 113.485C54.8035 113.485 55.2946 113.598 55.8613 113.787V115.374C55.5591 115.298 55.3324 115.261 55.1435 115.261C54.9169 115.261 54.728 115.298 54.6146 115.412C54.5391 115.487 54.5013 115.638 54.5013 115.865V116.885H55.8235V118.661H54.5013V125.196H52.4235V118.661H51.7057V116.923H51.668ZM56.8057 113.712H58.8835V125.196H56.8057V113.712ZM64.6635 116.734C65.4569 116.734 66.1746 116.923 66.8546 117.301C67.5346 117.678 68.1013 118.207 68.4791 118.887C68.8569 119.567 69.0457 120.285 69.0457 121.041C69.0457 121.834 68.8569 122.552 68.4791 123.232C68.1013 123.912 67.5724 124.441 66.8924 124.818C66.2124 125.196 65.4946 125.385 64.6635 125.385C63.4546 125.385 62.4724 124.97 61.6035 124.138C60.7724 123.307 60.3569 122.25 60.3569 121.078C60.3569 119.794 60.848 118.698 61.7924 117.83C62.6235 117.074 63.568 116.734 64.6635 116.734ZM64.7013 118.661C64.0591 118.661 63.5302 118.887 63.0769 119.341C62.6613 119.794 62.4346 120.361 62.4346 121.078C62.4346 121.796 62.6613 122.363 63.0769 122.816C63.4924 123.27 64.0213 123.496 64.7013 123.496C65.3435 123.496 65.9102 123.27 66.3257 122.816C66.7413 122.363 66.968 121.796 66.968 121.078C66.968 120.361 66.7413 119.794 66.3257 119.341C65.9102 118.887 65.3435 118.661 64.7013 118.661ZM70.2546 116.923H72.068V117.981C72.2569 117.565 72.5213 117.263 72.8235 117.036C73.1258 116.81 73.5035 116.734 73.8813 116.734C74.1458 116.734 74.448 116.81 74.7124 116.961L74.0702 118.774C73.8435 118.661 73.6169 118.585 73.4657 118.585C73.1635 118.585 72.8613 118.774 72.6724 119.19C72.4457 119.567 72.3324 120.361 72.3324 121.532V121.947V125.31H70.2546V116.923ZM81.8902 116.923H83.968V125.196H81.8902V124.327C81.4746 124.705 81.0591 124.97 80.6813 125.158C80.2658 125.31 79.8124 125.423 79.3591 125.423C78.3013 125.423 77.3569 125.007 76.5635 124.176C75.7702 123.345 75.3924 122.325 75.3924 121.078C75.3924 119.794 75.7702 118.736 76.5257 117.943C77.2813 117.112 78.188 116.734 79.2835 116.734C79.7746 116.734 80.2658 116.81 80.6813 116.998C81.1346 117.187 81.5124 117.452 81.8902 117.83V116.923ZM79.6991 118.623C79.0569 118.623 78.528 118.85 78.0746 119.303C77.6591 119.756 77.4324 120.323 77.4324 121.041C77.4324 121.758 77.6591 122.363 78.0746 122.816C78.528 123.27 79.0569 123.496 79.6613 123.496C80.3035 123.496 80.8702 123.27 81.2858 122.816C81.7013 122.363 81.928 121.758 81.928 121.041C81.928 120.323 81.7013 119.718 81.2858 119.303C80.908 118.85 80.3413 118.623 79.6991 118.623ZM87.9724 116.772H85.9324C86.0457 115.941 86.348 115.298 86.8391 114.77C87.5191 114.052 88.388 113.712 89.408 113.712C90.3146 113.712 91.108 114.014 91.7124 114.581C92.3169 115.147 92.6569 115.865 92.6569 116.658C92.6569 117.15 92.5058 117.603 92.2413 118.018C91.9769 118.434 91.5613 118.774 91.0702 119.001C91.7502 119.19 92.2791 119.567 92.6569 120.058C93.0346 120.55 93.2235 121.154 93.2235 121.834C93.2235 122.854 92.8457 123.685 92.128 124.403C91.3724 125.083 90.428 125.461 89.2946 125.461C88.1991 125.461 87.3302 125.121 86.6502 124.478C85.9702 123.836 85.5924 122.93 85.5169 121.796H87.6324C87.708 122.363 87.9346 122.816 88.2369 123.081C88.5391 123.383 88.9546 123.496 89.408 123.496C89.8991 123.496 90.3146 123.345 90.6546 123.005C90.9946 122.703 91.1458 122.287 91.1458 121.834C91.1458 121.305 90.9191 120.89 90.5035 120.55C90.0502 120.21 89.4458 120.021 88.6146 120.021V118.245C89.1435 118.207 89.5213 118.132 89.748 118.018C90.0124 117.905 90.2013 117.716 90.3146 117.527C90.4658 117.301 90.5413 117.112 90.5413 116.847C90.5413 116.545 90.428 116.281 90.2391 116.092C90.0124 115.903 89.748 115.79 89.408 115.79C89.1058 115.79 88.8413 115.865 88.5769 116.054C88.2369 116.243 88.048 116.47 87.9724 116.772ZM96.3591 114.014H101.61V115.978H97.9458L97.4924 118.018C97.6058 117.981 97.7569 117.943 97.8702 117.943C97.9835 117.943 98.0969 117.905 98.2102 117.905C99.2302 117.905 100.061 118.245 100.741 118.925C101.421 119.605 101.761 120.512 101.761 121.57C101.761 122.665 101.384 123.572 100.628 124.327C99.8724 125.083 98.9658 125.461 97.908 125.461C96.9635 125.461 96.1324 125.196 95.4524 124.63C94.7724 124.101 94.3191 123.345 94.0924 122.401H96.3591C96.548 122.741 96.7746 123.005 97.0391 123.194C97.3035 123.383 97.6435 123.458 97.9835 123.458C98.4369 123.458 98.8524 123.307 99.1924 122.967C99.5324 122.627 99.6835 122.212 99.6835 121.645C99.6835 121.116 99.5324 120.701 99.2302 120.361C98.928 120.021 98.5502 119.87 98.0969 119.87C97.8702 119.87 97.6435 119.945 97.4169 120.058C97.1902 120.172 96.9635 120.361 96.7369 120.587L94.9991 120.21L96.3591 114.014ZM104.67 123.043C105.01 123.043 105.275 123.156 105.501 123.383C105.728 123.61 105.841 123.912 105.841 124.214C105.841 124.554 105.728 124.818 105.501 125.045C105.275 125.272 104.972 125.385 104.67 125.385C104.368 125.385 104.066 125.272 103.839 125.045C103.612 124.818 103.499 124.516 103.499 124.214C103.499 123.874 103.612 123.61 103.839 123.383C104.066 123.156 104.33 123.043 104.67 123.043ZM107.428 116.923H109.241V117.981C109.43 117.565 109.695 117.263 109.997 117.036C110.299 116.81 110.677 116.734 111.055 116.734C111.319 116.734 111.621 116.81 111.886 116.961L111.244 118.774C111.017 118.661 110.79 118.585 110.639 118.585C110.337 118.585 110.035 118.774 109.846 119.19C109.619 119.567 109.506 120.361 109.506 121.532V121.947V125.31H107.428V116.923ZM112.906 116.923H115.021V120.89C115.021 121.683 115.059 122.212 115.172 122.514C115.286 122.816 115.437 123.043 115.701 123.232C115.928 123.383 116.23 123.496 116.57 123.496C116.91 123.496 117.212 123.421 117.439 123.232C117.666 123.081 117.855 122.816 117.968 122.514C118.044 122.287 118.081 121.758 118.081 120.965V116.923H120.159V120.436C120.159 121.872 120.046 122.854 119.819 123.421C119.555 124.063 119.139 124.554 118.572 124.932C118.044 125.272 117.326 125.461 116.495 125.461C115.588 125.461 114.832 125.272 114.304 124.856C113.737 124.441 113.359 123.874 113.132 123.156C112.981 122.665 112.906 121.758 112.906 120.398V116.923Z"
    fill="#292929"
  />
  <path
    d="M27.1094 58.4043H30.4716V91.271H47.2072V94.331H27.1094V58.4043ZM63.4894 58.4043H66.9272L82.0383 94.331H78.2983L74.4072 84.811H55.3672L51.3249 94.331H47.8116L63.4894 58.4043ZM65.076 62.0687L56.6894 81.751H73.1605L65.076 62.0687ZM90.6138 74.2332H97.716C99.4916 74.2332 100.889 74.0065 101.985 73.591C103.08 73.1376 103.949 72.6087 104.554 71.9665C105.158 71.3243 105.574 70.6443 105.8 69.8887C106.027 69.1332 106.14 68.4532 106.14 67.8487C106.14 67.2443 106.027 66.5643 105.8 65.8087C105.574 65.0532 105.158 64.3732 104.554 63.731C103.949 63.0887 103.08 62.5598 101.985 62.1065C100.889 61.6532 99.4538 61.4643 97.716 61.4643H90.6138V74.2332ZM87.2516 58.4043H96.696C97.1872 58.4043 97.8294 58.4043 98.6227 58.4421C99.416 58.4798 100.323 58.5932 101.267 58.7443C102.212 58.8954 103.194 59.1976 104.176 59.5376C105.158 59.9154 106.027 60.4443 106.82 61.1621C107.614 61.8798 108.256 62.7865 108.747 63.8443C109.238 64.9399 109.503 66.2621 109.503 67.811C109.503 69.5487 109.2 70.9465 108.596 72.0799C107.992 73.2132 107.274 74.0821 106.367 74.7999C105.46 75.4799 104.478 76.0087 103.383 76.3487C102.287 76.6887 101.267 76.9154 100.285 77.0665L110.749 94.331H106.934L96.8472 77.2932H90.6138V94.331H87.2516V58.4043ZM128.354 58.4043H131.792L146.903 94.331H143.163L139.272 84.811H120.232L116.189 94.331H112.676L128.354 58.4043ZM129.903 62.0687L121.516 81.751H137.987L129.903 62.0687Z"
    fill="#292929"
  />
  <path
    d="M160.727 78.7295C160.689 78.7295 160.689 78.7673 160.651 78.7673C160.5 78.805 160.349 78.8806 160.236 78.9561C160.122 79.0317 159.971 78.9939 159.858 78.9184C159.745 78.8428 159.669 78.7295 159.669 78.6161C159.631 77.2939 159.518 75.9339 159.367 74.6117C158.271 74.9895 155.853 75.5561 153.587 74.4984C150.111 72.8739 148.185 70.7206 148.676 68.9828C148.827 68.4539 149.242 67.9628 149.847 67.6228C151.282 66.7917 153.549 66.7917 155.778 67.585C156.987 68.0384 157.969 68.9072 158.687 69.7761C158.649 69.6628 158.649 69.5117 158.611 69.3984C157.969 65.7717 157.025 62.2584 155.816 58.9339C155.4 59.3117 154.796 59.8406 154.002 60.2939C152.793 60.9739 151.547 61.3139 150.376 61.2761C149.356 61.2384 148.336 61.0873 147.429 60.8606C147.24 60.8228 147.089 60.5961 147.165 60.4073C147.202 60.2184 147.391 60.0673 147.618 60.105C147.731 60.105 147.882 60.1428 147.996 60.1428C148.374 60.1806 148.676 60.2184 148.978 60.2561C149.658 60.3695 150.3 60.445 150.905 60.2939C150.942 60.2561 150.905 60.1806 150.867 60.1428C150.791 60.0673 150.753 60.105 150.716 60.105C150.187 60.2561 149.62 60.1806 149.129 60.105C148.94 60.0673 148.751 60.0295 148.6 60.0295C148.525 60.0295 148.373 60.0295 148.26 60.0295C147.656 60.0295 146.825 59.9917 146.485 59.4628C146.409 59.3495 146.258 59.425 146.258 59.425C146.296 59.5384 146.371 59.6139 146.485 59.7273C146.56 59.765 146.636 59.8028 146.674 59.8784C146.787 60.0673 146.749 60.2939 146.522 60.4073C146.409 60.4828 146.296 60.4828 146.182 60.445C144.369 59.6517 143.953 58.6695 143.916 57.9895C143.84 56.9317 144.633 55.8739 146.031 55.0806C147.165 54.4384 148.6 54.0228 150.074 53.9095C151.774 53.7961 153.322 54.5517 154.418 55.3073C153.889 54.1361 153.36 53.0028 152.793 51.945C151.509 49.4517 149.96 46.8828 148.033 44.0495L147.958 43.9739C147.429 44.7673 146.371 46.0895 144.86 46.9584C144.331 47.2606 143.765 47.4873 143.198 47.6384C139.42 48.545 136.549 47.9406 136.02 46.165C135.605 44.6539 137.002 42.6139 139.42 41.2539C139.987 40.9139 140.591 40.6495 141.196 40.4228C142.669 39.8939 144.18 40.1206 145.313 40.4606C144.331 39.2139 143.311 38.005 142.253 36.9473C141.233 35.8895 140.176 34.9073 139.118 34.0384C138.513 35.625 137.116 38.1184 134.849 39.1761C132.393 40.3473 130.127 40.7628 128.729 40.2717C128.162 40.045 127.747 39.705 127.52 39.2139C126.689 37.4006 128.578 34.265 131.676 32.3384L131.827 32.225C133.338 31.3561 135.038 31.3561 136.322 31.545C136.02 31.2806 135.718 31.0539 135.416 30.8273C134.093 29.7695 132.885 28.9384 131.713 28.2584C131.525 28.145 131.298 28.0317 131.071 27.9184C130.505 28.3717 129.938 28.7495 129.333 29.0895C127.709 29.9961 126.198 30.4495 124.8 30.4117C121.022 30.2228 118.416 28.6361 118.378 26.445C118.34 25.0473 119.398 23.725 121.211 22.9317C121.891 22.6295 122.647 22.4406 123.516 22.3273C124.12 22.2517 124.687 22.2139 125.216 22.2517C128.729 22.4406 131.26 25.9161 131.676 26.5584C131.94 26.6717 132.167 26.785 132.393 26.9361C133.64 27.6161 134.925 28.4473 136.36 29.505L136.398 29.5428C135.567 27.805 135.189 26.2184 135.265 24.7073C135.416 21.4584 136.436 18.9273 137.947 18.0584C138.476 17.7561 139.005 17.6806 139.609 17.7939C142.027 18.2473 143.727 22.2517 143.274 26.2939C142.934 29.2028 140.705 31.1295 139.533 31.9984L140.062 32.4139C141.233 33.3584 142.48 34.3784 143.613 35.5495C144.822 36.7584 146.031 38.1184 147.202 39.5917C146.862 37.9673 146.825 36.5317 147.127 35.285C147.769 32.6784 148.94 30.6761 150.338 29.8828C151.093 29.4673 151.887 29.3917 152.605 29.7317C154.833 30.7139 155.74 34.9073 154.569 38.6473C154.04 40.2717 152.907 41.5939 151.131 42.6139C150.64 42.8784 150.187 43.105 149.847 43.2561C151.396 45.5606 152.945 48.1295 154.493 51.1517C155.06 52.285 155.589 53.4184 156.08 54.6273C156.156 53.2673 156.42 52.1339 156.911 51.1895C157.818 49.4517 159.027 48.0539 160.198 47.3361C161.369 46.6561 162.502 46.6939 163.371 47.3739C165.298 48.885 165.26 53.0406 163.296 56.2895C162.805 57.1206 162.087 57.8006 161.18 58.2917C159.933 59.0095 158.611 59.2361 157.78 59.3495C158.8 62.485 159.556 65.6584 160.047 68.9072C160.349 68.0384 160.765 67.2828 161.256 66.6784C162.087 65.6584 162.993 64.865 163.938 64.3361C165.676 63.3539 167.262 63.4295 168.207 64.6006C169.756 66.4895 168.887 70.4939 166.393 73.1006C166.053 73.4406 165.676 73.7806 165.222 74.0073C163.598 74.9139 161.709 74.8384 160.689 74.7628C160.765 75.8961 160.802 77.105 160.802 78.465C160.916 78.5406 160.84 78.6539 160.727 78.7295ZM160.198 73.8939C160.273 73.8561 160.349 73.8184 160.425 73.8561C161.142 73.9317 163.258 74.2339 164.958 73.2517C165.336 73.025 165.638 72.7984 165.94 72.4961C168.131 70.1917 168.962 66.565 167.716 65.0161C166.733 63.8073 165.109 64.5628 164.429 64.9406C163.598 65.4317 162.729 66.1873 161.974 67.1317C161.218 68.0384 160.727 69.285 160.425 70.9473C160.387 71.1361 160.236 71.2873 160.047 71.2495C159.933 71.2495 159.782 71.1739 159.745 71.0606C159.745 71.1739 159.782 71.2873 159.782 71.4006C159.82 71.5895 159.707 71.7784 159.518 71.8161C159.329 71.8917 159.14 71.8161 159.065 71.6273C158.498 70.645 157.327 68.945 155.589 68.3028C153.587 67.585 151.509 67.585 150.3 68.265C149.885 68.4917 149.582 68.8317 149.507 69.1717C149.129 70.4561 151.018 72.3828 154.002 73.7806C156.42 74.9139 159.102 73.8939 159.631 73.6673C159.745 73.6295 159.858 73.6295 159.971 73.705C160.085 73.7806 160.122 73.8561 160.16 73.9695C160.122 73.9317 160.16 73.8939 160.198 73.8939ZM155.816 57.8761C155.891 57.8384 156.005 57.8006 156.08 57.8384C156.231 57.8761 156.307 57.9517 156.382 58.1028C157.705 61.6539 158.725 65.3939 159.405 69.285C159.442 69.5117 159.48 69.7384 159.518 69.965C159.48 69.7384 159.442 69.5117 159.442 69.3228C158.951 65.8473 158.12 62.4095 157.025 59.085C156.987 58.9717 156.987 58.8584 157.062 58.745C157.138 58.6317 157.251 58.5939 157.365 58.5561C157.969 58.4806 159.556 58.3295 160.916 57.5361C161.709 57.0828 162.314 56.5161 162.729 55.7984C164.429 52.965 164.542 49.1495 162.993 47.9028C162.2 47.2606 161.293 47.5628 160.689 47.9028C160.576 47.9784 160.462 48.0539 160.349 48.1295C160.538 48.205 160.727 48.3939 160.84 48.6206C161.105 49.1495 160.991 49.7161 160.576 49.9428L160.462 50.0184C159.858 50.3584 159.556 51.1139 159.216 51.9073C159.102 52.1717 158.989 52.4361 158.876 52.6628C158.271 53.9473 158.271 55.2317 158.271 56.7806C158.271 57.4606 157.591 57.8384 157.025 57.4984C156.836 57.385 156.685 57.2339 156.609 57.045C156.42 57.045 156.269 56.9695 156.193 56.7806C155.476 54.8917 154.682 53.0784 153.851 51.3784C152.189 48.2428 150.602 45.5606 148.978 43.1806C148.902 43.0673 148.902 42.9539 148.94 42.8406C148.978 42.7273 149.053 42.6517 149.167 42.5761C149.507 42.425 150.111 42.1984 150.791 41.8206C152.378 40.9139 153.436 39.705 153.889 38.3073C155.022 34.7184 154.002 31.0539 152.34 30.3361C150.716 29.6184 148.751 31.9606 147.92 35.3984C147.542 36.985 147.731 38.9117 148.525 41.2539C148.6 41.4428 148.525 41.6317 148.336 41.7073C148.147 41.7828 147.958 41.745 147.845 41.5939C146.333 39.5161 144.709 37.665 143.085 36.0406C141.951 34.9073 140.742 33.8873 139.571 32.9806L138.665 32.225C138.551 32.1495 138.513 32.0361 138.513 31.9228C138.513 31.8095 138.589 31.6961 138.665 31.6206C139.533 31.0161 142.178 29.1273 142.518 26.1806C142.971 22.2895 141.233 18.8517 139.496 18.5117C137.72 18.1717 136.247 21.005 136.096 24.7073C136.096 25.085 136.096 25.4628 136.133 25.8406C136.171 25.6517 136.171 25.5006 136.209 25.3117C136.285 24.5939 136.36 23.8761 136.473 23.1584C136.549 22.5917 136.625 22.025 136.662 21.4584C136.738 20.7784 137.569 20.4384 138.136 20.8161C138.476 21.0428 138.627 21.3828 138.589 21.7606C138.551 22.2517 138.438 22.7428 138.362 23.1961C138.287 23.6117 138.249 24.0273 138.173 24.4428C138.136 24.745 138.098 25.0473 138.098 25.3495C138.098 25.5761 138.06 25.8028 138.022 26.0295C138.022 26.1806 137.985 26.3317 137.947 26.4828C137.871 26.8228 137.833 27.1628 137.947 27.5028C138.098 27.9561 137.909 28.4095 137.531 28.6361C137.342 28.7495 137.116 28.7873 136.927 28.7495C137.191 29.3917 137.569 30.0717 137.985 30.7895C138.098 30.9406 138.06 31.1673 137.909 31.2806C137.758 31.3939 137.569 31.3939 137.418 31.2806C136.927 30.9028 136.436 30.525 135.945 30.1473C134.849 29.3161 133.867 28.6361 132.885 28.0695C133.829 28.6739 134.849 29.3917 135.945 30.2606C136.7 30.865 137.418 31.4695 138.136 32.0739C138.287 32.1873 138.325 32.4139 138.211 32.565C138.173 32.6406 138.136 32.6784 138.06 32.7161C138.287 32.7539 138.551 32.8673 138.702 33.0939C138.74 33.0561 138.816 33.0184 138.853 32.9806C138.967 32.9428 139.118 32.9806 139.231 33.0561L139.458 33.245C140.553 34.1895 141.725 35.2095 142.858 36.3806C144.218 37.7784 145.54 39.365 146.825 41.065C146.938 41.2161 146.938 41.405 146.825 41.5561C146.711 41.7073 146.522 41.745 146.371 41.6695C145.351 41.1784 143.387 40.4606 141.498 41.1406C140.931 41.3295 140.365 41.5939 139.836 41.8961C137.796 43.0673 136.473 44.805 136.813 45.9384C136.851 46.1273 136.965 46.3161 137.116 46.4673C137.116 46.2028 137.229 45.9761 137.456 45.7873C137.569 45.6739 137.607 45.6739 137.682 45.6361C137.985 45.4473 138.325 45.485 138.627 45.6739C140.1 46.1273 141.687 45.5228 143.236 44.9184C143.576 44.805 143.916 44.6539 144.256 44.5406C144.709 44.3895 145.162 44.5784 145.389 45.0317C145.502 45.2584 145.502 45.485 145.427 45.7117C146.673 44.7295 147.429 43.5206 147.656 43.105C147.731 42.9917 147.845 42.9161 147.958 42.9161C148.109 42.9161 148.222 42.9917 148.298 43.0673L148.713 43.6339C150.64 46.505 152.227 49.1117 153.511 51.605C154.305 53.1161 155.06 54.7406 155.74 56.4406C155.816 56.5917 155.74 56.8184 155.589 56.8939C155.438 57.0073 155.249 56.9695 155.098 56.8561C154.342 56.1384 152.34 54.5139 150.111 54.665C148.751 54.7784 147.429 55.1561 146.371 55.7228C145.238 56.365 144.596 57.1961 144.633 57.9139C144.671 58.405 145.011 58.8206 145.465 59.1606C145.653 58.5939 146.673 58.3295 147.127 59.0095C147.24 59.1984 147.958 59.1984 148.26 59.1984C148.411 59.1984 148.562 59.1984 148.638 59.1984C148.827 59.1984 149.053 59.2361 149.242 59.2739C149.696 59.3495 150.111 59.425 150.451 59.3117C150.98 59.1606 151.396 59.4628 151.585 59.8784C151.66 60.0295 151.66 60.2184 151.66 60.3695C152.302 60.2184 152.945 59.9917 153.625 59.6139C154.72 59.0095 155.438 58.2539 155.702 57.9895C155.778 57.9517 155.778 57.9139 155.816 57.8761ZM159.745 48.5828L159.896 48.885C159.027 49.3761 158.611 50.3961 158.196 51.4161L157.969 51.945C157.289 53.4939 157.214 54.8917 157.251 56.5917C157.251 56.705 157.327 56.7806 157.365 56.8184C157.44 56.8561 157.478 56.8561 157.478 56.8561C157.44 55.1939 157.478 53.7584 158.12 52.3228C158.233 52.0961 158.347 51.8317 158.422 51.605C158.8 50.7361 159.178 49.7917 160.009 49.3384L160.122 49.3006C160.16 49.2628 160.16 49.1495 160.085 48.9984C160.047 48.9228 159.971 48.8473 159.933 48.8473L159.745 48.5828C159.782 48.545 159.782 48.545 159.745 48.5828ZM138.06 46.2406C137.909 46.3539 137.909 46.3917 137.909 46.4295C138.891 46.8828 140.138 46.7317 140.969 46.6184C141.876 46.4673 142.631 46.2028 143.425 45.8628C143.802 45.7117 144.18 45.5606 144.596 45.4473C144.671 45.4095 144.633 45.2961 144.633 45.2961C144.596 45.2206 144.558 45.1828 144.482 45.2206C144.18 45.3339 143.84 45.4473 143.5 45.5984C141.876 46.2028 140.062 46.9206 138.325 46.3539C138.287 46.3539 138.211 46.3161 138.173 46.2784C138.136 46.2028 138.098 46.2028 138.06 46.2406ZM132.318 32.8673L132.167 32.9428C129.22 34.7561 127.709 37.5139 128.313 38.7984C128.465 39.1006 128.729 39.3273 129.107 39.4406C130.278 39.8561 132.393 39.4406 134.622 38.3828C135.076 38.1561 135.491 37.8539 135.907 37.5517C135.265 37.9673 134.585 38.2317 133.867 38.345C133.451 38.4206 133.111 38.2317 132.96 37.8161C132.809 37.3628 133.073 36.6073 133.678 36.5317C134.925 36.3428 135.68 35.3606 136.398 34.265C136.7 33.8117 137.002 33.3584 137.38 32.905C137.493 32.7917 137.645 32.6784 137.796 32.6406C137.002 32.4139 134.396 31.6584 132.318 32.8673ZM133.753 37.325C133.678 37.3628 133.678 37.4384 133.678 37.4761C133.678 37.5517 133.678 37.5895 133.678 37.5895C134.585 37.4384 135.34 37.0606 136.096 36.4184C136.587 36.0028 136.889 35.5117 137.267 34.945C137.531 34.5295 137.833 34.0761 138.173 33.6606C138.211 33.6228 138.249 33.585 138.173 33.4717C138.136 33.4339 138.06 33.3584 138.022 33.3961C137.645 33.8117 137.342 34.265 137.04 34.6806C136.473 35.5117 135.907 36.3428 135.038 36.8717C134.66 37.0984 134.245 37.2117 133.829 37.2873L133.753 37.325ZM137.531 21.3828C137.531 21.3828 137.493 21.3828 137.493 21.4961C137.418 22.0628 137.342 22.6673 137.305 23.2339C137.229 23.9517 137.116 24.6695 137.04 25.3873C137.002 25.5761 137.002 25.8028 136.965 25.9917C136.889 26.6339 136.813 27.2006 137.002 27.8428C137.002 27.8806 137.04 27.9561 137.078 27.9561C137.191 27.9939 137.305 27.8806 137.267 27.7295C137.078 27.2006 137.191 26.7473 137.267 26.3317C137.305 26.1806 137.305 26.0673 137.342 25.9161C137.38 25.6895 137.38 25.5006 137.418 25.2739C137.456 24.9717 137.456 24.6695 137.493 24.3295C137.531 23.9139 137.607 23.4984 137.682 23.0828C137.758 22.6295 137.833 22.1384 137.871 21.685C137.871 21.6473 137.871 21.5339 137.758 21.4584C137.645 21.345 137.569 21.345 137.531 21.3828ZM131.071 27.0117C131.109 27.0117 131.147 27.0117 131.185 27.0117C131.185 27.0117 131.185 27.0117 131.185 26.9739C130.505 25.9161 128.162 23.0828 125.291 22.9317C124.8 22.8939 124.309 22.9317 123.742 23.0073C122.987 23.1206 122.269 23.2717 121.665 23.5361C120.153 24.1784 119.247 25.2739 119.285 26.3317C119.322 28.0695 121.665 29.3917 124.989 29.5428C125.593 29.5806 126.273 29.4673 126.953 29.2784C126.576 29.3161 126.198 29.3161 125.782 29.2784C125.405 29.2406 125.065 29.165 124.725 29.0517C124.385 28.9384 124.045 28.8628 123.742 28.8628C123.327 28.8628 123.025 28.5984 122.911 28.1828C122.76 27.5784 123.176 26.9361 123.78 26.9361C124.309 26.9361 124.8 27.0495 125.291 27.1628C125.933 27.3139 126.538 27.4273 127.18 27.3139C127.747 27.2384 128.238 27.0873 128.653 26.8606C128.767 26.785 128.918 26.7473 129.069 26.6717C129.22 26.5961 129.409 26.5584 129.522 26.4828C129.522 26.4828 129.673 26.3695 129.711 26.3695C130.127 26.1428 130.693 26.2561 130.958 26.7095C130.996 26.8228 131.033 26.9361 131.071 27.0117ZM123.667 27.7673C123.629 27.805 123.591 27.9184 123.629 28.0317C123.667 28.1073 123.705 28.1073 123.705 28.1073C124.12 28.1073 124.536 28.2206 124.913 28.3339C125.216 28.4095 125.518 28.5228 125.82 28.5228C126.462 28.5606 127.105 28.5228 127.671 28.4095C128.502 28.2206 129.636 27.8806 130.316 27.3517C130.353 27.3139 130.391 27.2761 130.316 27.1628C130.316 27.1628 130.202 27.0117 130.089 27.0873C129.825 27.2761 129.598 27.3517 129.333 27.465C129.22 27.5028 129.069 27.5406 128.993 27.6161C128.502 27.8806 127.936 28.0317 127.293 28.145C126.5 28.2584 125.782 28.1073 125.102 27.9561C124.649 27.8428 124.196 27.7673 123.742 27.7673H123.667ZM162.351 72.1184C162.011 72.3073 161.558 72.2317 161.256 71.8917C160.953 71.5517 160.916 71.0984 161.18 70.7206C161.331 70.4939 161.52 70.305 161.747 70.1539C161.898 70.0406 162.011 69.8895 162.125 69.7006L162.465 69.285C162.805 68.8317 163.182 68.3784 163.749 68.2273C164.165 68.1139 164.542 68.3028 164.731 68.7561C164.958 69.2473 164.769 70.0028 164.202 70.1539C164.051 70.2295 163.9 70.4561 163.787 70.645C163.711 70.7584 163.636 70.8717 163.56 70.9473C163.522 71.0228 163.447 71.0606 163.409 71.1361C163.333 71.2495 163.22 71.3628 163.145 71.4761C163.069 71.5517 162.956 71.6273 162.88 71.7028C162.805 71.7784 162.691 71.8161 162.653 71.8917C162.54 71.9673 162.465 72.0806 162.351 72.1184ZM163.749 69.0584C163.485 69.2095 163.296 69.4739 163.069 69.7761L162.767 70.1917C162.616 70.3806 162.465 70.645 162.238 70.7961C162.087 70.9095 161.973 71.0228 161.86 71.2117C161.822 71.2873 161.822 71.325 161.898 71.4006C161.973 71.4761 162.011 71.4761 162.049 71.4761C162.2 71.2873 162.351 71.1739 162.465 71.0984C162.54 71.0606 162.578 71.0228 162.653 70.9473C162.729 70.8717 162.805 70.7961 162.842 70.6828C162.918 70.6073 162.956 70.5317 163.031 70.4561C163.069 70.3806 163.145 70.305 163.22 70.2295C163.447 69.9272 163.711 69.5495 164.089 69.4361C164.127 69.4361 164.165 69.3606 164.165 69.2473C164.165 69.0961 164.089 68.9828 164.051 68.9828C163.862 68.9828 163.787 69.0206 163.749 69.0584ZM156.231 73.8561C156.042 73.9695 155.778 74.0073 155.551 73.8939C153.851 73.3273 151.962 72.4961 150.829 70.8717C150.678 70.6828 150.64 70.4561 150.678 70.2295C150.791 69.625 151.811 69.285 152.302 70.0028C153.096 71.1361 154.645 71.7406 156.08 72.1939C156.42 72.3073 156.647 72.5717 156.685 72.9495C156.722 73.3273 156.533 73.705 156.231 73.8561ZM151.433 70.4184C151.433 70.4561 151.433 70.4561 151.433 70.4184C152.416 71.8917 154.191 72.6473 155.778 73.1761C155.853 73.1761 155.891 73.1006 155.891 73.025C155.891 72.9873 155.853 72.9495 155.816 72.9495C154.305 72.4584 152.567 71.8161 151.66 70.4939C151.585 70.3428 151.471 70.4184 151.433 70.4184ZM150.791 40.6873C150.489 40.8761 150.111 40.8006 149.809 40.4984C149.507 40.1961 149.318 39.705 149.545 39.2139C149.96 38.3828 150.225 37.4006 150.338 36.305C150.338 36.1161 150.338 35.8895 150.338 35.625C150.338 35.0584 150.3 34.4539 150.565 33.9628C150.64 33.8495 150.716 33.7361 150.867 33.6606H150.905C151.282 33.4339 151.811 33.6228 152.151 34.0761C152.378 34.4161 152.416 34.8317 152.227 35.1717C152.227 35.2473 152.227 35.5873 152.227 35.7384C152.227 35.8517 152.227 35.965 152.227 36.0406C152.227 36.5695 152.151 37.1361 152.038 37.7406C151.887 38.685 151.585 39.5539 151.093 40.385C151.018 40.4984 150.905 40.6117 150.791 40.6873ZM151.282 34.3406C151.093 34.6806 151.093 35.1717 151.131 35.625C151.131 35.8895 151.131 36.1539 151.131 36.3806C151.018 37.5895 150.754 38.6473 150.262 39.5917C150.225 39.705 150.262 39.7806 150.3 39.8561C150.376 39.9695 150.451 40.0073 150.489 40.0073C150.905 39.2139 151.169 38.4206 151.32 37.5517C151.433 36.985 151.471 36.4939 151.471 36.0028C151.471 35.965 151.471 35.8517 151.471 35.7761C151.433 35.3228 151.433 35.0206 151.547 34.7939C151.622 34.6806 151.547 34.5673 151.509 34.5295C151.396 34.4161 151.32 34.3784 151.282 34.3406Z"
    fill="#292929"
  />
  <path
    d="M161.183 80.9199C161.258 82.2044 161.296 83.4888 161.296 84.7733C161.296 127.311 126.805 161.802 84.2672 161.802C41.7294 161.802 7.23828 127.311 7.23828 84.7733C7.23828 42.2355 41.6916 7.74438 84.2294 7.74438C98.6605 7.74438 112.147 11.711 123.669 18.5866"
    stroke="#292929"
    stroke-width="1.31556"
    stroke-miterlimit="10"
  />
</svg>