<svg viewBox="0 0 16 16" xmlns="http://www.w3.org/2000/svg">
  <rect x="1.33203" y="4" width="13.3333" height="10.6667" rx="2" stroke-width="1.2"/>
  <rect x="1.33203" y="4" width="13.3333" height="10.6667" rx="2"  stroke-opacity="0.5" stroke-width="1.2"/>
  <path d="M12.6654 4.3335V3.78721C12.6654 2.5205 11.5027 1.57286 10.2621 1.82829L2.92873 3.3381C1.99911 3.52949 1.33203 4.3479 1.33203 5.29701L1.33203 8.66683" stroke-width="1.2"/>
  <path d="M12.6654 4.3335V3.78721C12.6654 2.5205 11.5027 1.57286 10.2621 1.82829L2.92873 3.3381C1.99911 3.52949 1.33203 4.3479 1.33203 5.29701L1.33203 8.66683"  stroke-opacity="0.5" stroke-width="1.2"/>
  <path d="M4 11.6668H8" stroke-width="1.2" stroke-linecap="round" stroke-linejoin="round"/>
  <path d="M4 11.6668H8"  stroke-opacity="0.5" stroke-width="1.2" stroke-linecap="round" stroke-linejoin="round"/>
  <path d="M10 9.33366C10 8.41318 10.7462 7.66699 11.6667 7.66699H14.6667V11.0003H11.6667C10.7462 11.0003 10 10.2541 10 9.33366V9.33366Z" stroke-width="1.2"/>
  <path d="M10 9.33366C10 8.41318 10.7462 7.66699 11.6667 7.66699H14.6667V11.0003H11.6667C10.7462 11.0003 10 10.2541 10 9.33366V9.33366Z"  stroke-opacity="0.5" stroke-width="1.2"/>
  <path d="M11.6641 9.3335H11.7974" stroke-width="1.2" stroke-linecap="round" stroke-linejoin="round"/>
  <path d="M11.6641 9.3335H11.7974"  stroke-opacity="0.5" stroke-width="1.2" stroke-linecap="round" stroke-linejoin="round"/>
</svg>
