<svg viewBox="0 0 18 18" xmlns="http://www.w3.org/2000/svg">
  <path
    d="M6.5013 0.833252V2.49992H11.5013V0.833252H13.168V2.49992H16.5013C16.9615 2.49992 17.3346 2.87302 17.3346 3.33325V16.6666C17.3346 17.1268 16.9615 17.4999 16.5013 17.4999H1.5013C1.04107 17.4999 0.667969 17.1268 0.667969 16.6666V3.33325C0.667969 2.87302 1.04107 2.49992 1.5013 2.49992H4.83463V0.833252H6.5013ZM15.668 9.16658H2.33464V15.8332H15.668V9.16658ZM5.66797 11.6666V13.3333H4.0013V11.6666H5.66797ZM14.0013 11.6666V13.3333H7.33463V11.6666H14.0013ZM4.83463 4.16658H2.33464V7.49992H15.668V4.16658H13.168V5.83325H11.5013V4.16658H6.5013V5.83325H4.83463V4.16658Z" />
</svg>