<svg width="24" height="24" viewBox="0 0 24 24" fill="none" xmlns="http://www.w3.org/2000/svg">
  <g clip-path="url(#clip0_543_6221)">
    <path
      d="M15.0633 11.4425L5.58594 9.77002V22.1279C5.58594 22.6923 6.04345 23.1498 6.60782 23.1498H22.9613C23.5256 23.1498 23.9832 22.6923 23.9832 22.1279V17.5749L15.0633 11.4425Z"
      fill="#185C37" />
    <path
      d="M15.0633 0.850098H6.60782C6.04345 0.850098 5.58594 1.30761 5.58594 1.87198V6.42501L15.0633 11.9999L20.0807 13.6724L23.9832 11.9999V6.42501L15.0633 0.850098Z"
      fill="#21A366" />
    <path d="M5.58594 6.4248H15.0633V11.9997H5.58594V6.4248Z" fill="#107C41" />
    <path opacity="0.1"
      d="M12.3689 5.31006H5.58594V19.2473H12.3689C12.9325 19.2455 13.389 18.7891 13.3908 18.2255V6.33194C13.389 5.76833 12.9325 5.31189 12.3689 5.31006Z"
      fill="#292929" />
    <path opacity="0.2"
      d="M11.8114 5.86768H5.58594V19.805H11.8114C12.3751 19.8031 12.8315 19.3467 12.8333 18.7831V6.88955C12.8315 6.32595 12.3751 5.86951 11.8114 5.86768Z"
      fill="#292929" />
    <path opacity="0.2"
      d="M11.8114 5.86768H5.58594V18.69H11.8114C12.3751 18.6881 12.8315 18.2317 12.8333 17.6681V6.88955C12.8315 6.32595 12.3751 5.86951 11.8114 5.86768Z"
      fill="#292929" />
    <path opacity="0.2"
      d="M11.254 5.86768H5.58594V18.69H11.254C11.8176 18.6881 12.274 18.2317 12.2758 17.6681V6.88955C12.274 6.32595 11.8176 5.86951 11.254 5.86768Z"
      fill="#292929" />
    <path
      d="M1.0375 5.86768H11.2585C11.8229 5.86768 12.2804 6.32519 12.2804 6.88955V17.1106C12.2804 17.675 11.8229 18.1325 11.2585 18.1325H1.0375C0.473134 18.1325 0.015625 17.675 0.015625 17.1106V6.88955C0.015625 6.32519 0.473134 5.86768 1.0375 5.86768Z"
      fill="url(#paint0_linear_543_6221)" />
    <path
      d="M3.17969 15.3214L5.32937 11.9904L3.35976 8.67773H4.94414L6.01899 10.7962C6.11823 10.9975 6.18624 11.1469 6.22304 11.2455H6.23697C6.30645 11.0874 6.38082 10.9314 6.45997 10.7778L7.60895 8.67885H9.06345L7.04365 11.972L9.11475 15.3214H7.56715L6.32561 12.9961C6.26713 12.8971 6.21751 12.7932 6.17733 12.6855H6.15893C6.12256 12.791 6.07431 12.892 6.01509 12.9866L4.73677 15.3214H3.17969Z"
      fill="white" />
    <path d="M22.9644 0.850098H15.0664V6.42501H23.9863V1.87198C23.9863 1.30761 23.5288 0.850098 22.9644 0.850098Z"
      fill="#33C481" />
    <path d="M15.0664 12H23.9863V17.5749H15.0664V12Z" fill="#107C41" />
  </g>
  <defs>
    <linearGradient id="paint0_linear_543_6221" x1="2.14627" y1="5.0692" x2="10.1498" y2="18.931"
      gradientUnits="userSpaceOnUse">
      <stop stop-color="#18884F" />
      <stop offset="0.5" stop-color="#117E43" />
      <stop offset="1" stop-color="#0B6631" />
    </linearGradient>
    <clipPath id="clip0_543_6221">
      <rect width="24" height="24" fill="white" />
    </clipPath>
  </defs>
</svg>