<svg width="20" height="24" viewBox="0 0 20 24" fill="none" xmlns="http://www.w3.org/2000/svg">
  <g clip-path="url(#clip0_543_6235)">
    <path
      d="M2.47865 8.51119e-05C1.11227 8.51119e-05 0 1.11315 0 2.47948V21.5205C0 22.8868 1.11227 23.9999 2.47865 23.9999H17.0387C18.4051 23.9999 19.5174 22.8869 19.5174 21.5205V5.86348C19.5174 5.86348 19.5564 5.40501 19.3573 4.95888C19.1708 4.54069 18.8667 4.24962 18.8667 4.24962C18.866 4.24859 18.8652 4.24757 18.8645 4.24655L15.252 0.703256C15.2501 0.701235 15.2481 0.699234 15.246 0.697255C15.246 0.697255 14.9376 0.403574 14.4804 0.207386C13.9421 -0.0236163 13.3872 0.000768942 13.3872 0.000768942L13.3955 0L2.47865 8.51119e-05Z"
      fill="#FF2116" />
    <path
      d="M2.4767 0.814453H13.3936C13.3963 0.814481 13.3991 0.814481 13.4018 0.814453C13.4018 0.814453 13.8384 0.818684 14.1577 0.955704C14.465 1.08758 14.6829 1.28721 14.6844 1.28855C14.6844 1.28855 14.6859 1.29009 14.6859 1.29009L18.2893 4.8251C18.2893 4.8251 18.5064 5.05431 18.6116 5.29018C18.6965 5.48057 18.7017 5.82889 18.7017 5.82889C18.7014 5.83464 18.7011 5.8404 18.701 5.84616V21.5205C18.701 22.4498 17.9661 23.1854 17.0368 23.1854H2.4767C1.54734 23.1854 0.8125 22.4499 0.8125 21.5205V2.47944C0.8125 1.55003 1.54734 0.814453 2.4767 0.814453Z"
      fill="#F5F5F5" />
    <path
      d="M4.87164 14.2893C4.31128 13.7289 4.91755 12.9589 6.56289 12.1412L7.59816 11.6267L8.00148 10.7443C8.22331 10.2589 8.55438 9.46699 8.7372 8.98443L9.0696 8.10704L8.84054 7.45772C8.55889 6.65932 8.45845 5.45954 8.63715 5.02812C8.87921 4.44375 9.67206 4.50371 9.98595 5.13012C10.2311 5.61934 10.206 6.50531 9.91544 7.62265L9.67721 8.53867L9.88705 8.8949C10.0025 9.09083 10.3396 9.55605 10.6362 9.92871L11.1937 10.6222L11.8874 10.5317C14.0913 10.2441 14.8461 10.7328 14.8461 11.4336C14.8461 12.3181 13.1156 12.3911 11.6625 11.3705C11.3355 11.1408 11.111 10.9127 11.111 10.9127C11.111 10.9127 10.2006 11.098 9.75238 11.2188C9.28972 11.3435 9.0589 11.4216 8.38117 11.6504C8.38117 11.6504 8.14339 11.9957 7.98844 12.2468C7.41196 13.1807 6.73886 13.9547 6.25816 14.2364C5.71995 14.5519 5.15572 14.5734 4.87164 14.2893ZM5.75104 13.9751C6.06603 13.7804 6.70358 13.0264 7.1449 12.3265L7.32359 12.0432L6.50999 12.4523C5.25341 13.0841 4.67855 13.6795 4.97747 14.0397C5.1454 14.242 5.34628 14.2253 5.75104 13.9751ZM13.9133 11.684C14.2214 11.4682 14.1766 11.0334 13.8283 10.858C13.5573 10.7216 13.3388 10.6936 12.6346 10.7039C12.2019 10.7335 11.506 10.8207 11.3881 10.8472C11.3881 10.8472 11.7704 11.1114 11.9401 11.2085C12.166 11.3375 12.715 11.5771 13.1159 11.6998C13.5113 11.8208 13.74 11.808 13.9133 11.684ZM10.6313 10.32C10.4449 10.124 10.1278 9.71488 9.92679 9.41089C9.66385 9.06605 9.53199 8.82276 9.53199 8.82276C9.53199 8.82276 9.33981 9.44092 9.18213 9.81291L8.69022 11.0288L8.54759 11.3046C8.54759 11.3046 9.30582 11.056 9.6916 10.9552C10.1002 10.8485 10.9295 10.6854 10.9295 10.6854L10.6313 10.32ZM9.5737 6.07856C9.62126 5.67945 9.64145 5.28094 9.51322 5.07998C9.15754 4.69115 8.72825 5.0154 8.80096 5.93981C8.82543 6.25078 8.90268 6.78239 9.00597 7.11005L9.19376 7.70578L9.32593 7.25709C9.39862 7.01031 9.51012 6.47997 9.5737 6.07856Z"
      fill="#FF2116" />
    <path
      d="M5.82812 16.8843H6.73789C7.02859 16.8843 7.26456 16.9121 7.44579 16.9677C7.62703 17.0215 7.77955 17.1427 7.90337 17.3311C8.02718 17.5177 8.08909 17.7429 8.08909 18.0067C8.08909 18.2489 8.03885 18.4571 7.93836 18.6311C7.83787 18.8052 7.70239 18.9308 7.53192 19.008C7.36325 19.0851 7.10306 19.1237 6.75135 19.1237H6.43643V20.5583H5.82812V16.8843ZM6.43643 17.3553V18.6365H6.73789C7.00706 18.6365 7.19278 18.5863 7.29506 18.4858C7.39914 18.3853 7.45117 18.222 7.45117 17.9959C7.45117 17.8272 7.41708 17.6909 7.34889 17.5868C7.28071 17.4809 7.20534 17.4163 7.1228 17.393C7.04205 17.3679 6.91375 17.3553 6.73789 17.3553L6.43643 17.3553ZM8.55474 16.8843H9.38107C9.78122 16.8843 10.1006 16.9552 10.3393 17.0969C10.5797 17.2387 10.761 17.4495 10.883 17.7294C11.0068 18.0094 11.0687 18.3198 11.0687 18.6607C11.0687 19.0196 11.0131 19.3399 10.9018 19.6217C10.7924 19.9016 10.6237 20.1277 10.3958 20.2999C10.1697 20.4722 9.84672 20.5583 9.42683 20.5583H8.55474V16.8843ZM9.16305 17.3715V20.0712H9.41606C9.76956 20.0712 10.0262 19.9491 10.1859 19.7051C10.3456 19.4593 10.4254 19.1318 10.4254 18.7227C10.4254 17.8219 10.089 17.3715 9.41606 17.3715H9.16305ZM11.6528 16.8843H13.6931V17.3715H12.2611V18.4696H13.4077V18.9568H12.2611V20.5583H11.6528V16.8843Z"
      fill="#292929" />
  </g>
  <defs>
    <clipPath id="clip0_543_6235">
      <rect width="19.5205" height="24" fill="white" />
    </clipPath>
  </defs>
</svg>