<svg viewBox="0 0 18 18" xmlns="http://www.w3.org/2000/svg">
  <path
    d="M14.0232 12.8472L17.5921 16.4161L16.4136 17.5946L12.8447 14.0257C11.5615 15.0523 9.93406 15.6665 8.16406 15.6665C4.02406 15.6665 0.664062 12.3065 0.664062 8.1665C0.664062 4.0265 4.02406 0.666504 8.16406 0.666504C12.3041 0.666504 15.6641 4.0265 15.6641 8.1665C15.6641 9.9365 15.0499 11.5639 14.0232 12.8472ZM12.3513 12.2288C13.3703 11.1787 13.9974 9.74617 13.9974 8.1665C13.9974 4.94359 11.387 2.33317 8.16406 2.33317C4.94114 2.33317 2.33073 4.94359 2.33073 8.1665C2.33073 11.3894 4.94114 13.9998 8.16406 13.9998C9.74373 13.9998 11.1762 13.3728 12.2264 12.3538L12.3513 12.2288Z" />
</svg>